<?xml version="1.0" standalone="no"?>
<!DOCTYPE svg PUBLIC "-//W3C//DTD SVG 20010904//EN"
 "http://www.w3.org/TR/2001/REC-SVG-20010904/DTD/svg10.dtd">
<svg version="1.0" xmlns="http://www.w3.org/2000/svg"
 width="566.000000pt" height="274.000000pt" viewBox="0 0 566.000000 274.000000"
 preserveAspectRatio="xMidYMid meet">

<g transform="translate(0.000000,274.000000) scale(0.100000,-0.100000)"
fill="#000000" stroke="none">
<path d="M0 1370 l0 -1370 2830 0 2830 0 0 1370 0 1370 -2830 0 -2830 0 0
-1370z m2763 1193 c-13 -2 -33 -2 -45 0 -13 2 -3 4 22 4 25 0 35 -2 23 -4z
m165 0 c-10 -2 -26 -2 -35 0 -10 3 -2 5 17 5 19 0 27 -2 18 -5z m-2068 -667
c0 -2 -8 -10 -17 -17 -16 -13 -17 -12 -4 4 13 16 21 21 21 13z m4248 -143
c-32 -2 -84 -2 -115 0 -32 2 -6 3 57 3 63 0 89 -1 58 -3z m462 1 c-82 -8 -198
-8 -193 -1 2 4 55 6 116 5 62 -1 96 -3 77 -4z m-5343 -11 c-31 -2 -83 -2 -115
0 -31 2 -5 3 58 3 63 0 89 -1 57 -3z m443 1 c-83 -8 -188 -8 -183 -1 2 4 52 6
111 5 59 -1 91 -3 72 -4z m354 -446 c5 -12 4 -18 -3 -18 -7 0 -11 -22 -11 -56
0 -61 18 -90 50 -81 13 3 21 -1 25 -14 4 -10 25 -34 47 -54 l42 -35 -32 0
c-26 0 -31 4 -34 28 -2 19 -9 28 -25 30 -13 2 -23 -1 -23 -7 0 -6 -7 -11 -15
-11 -8 0 -15 5 -15 10 0 6 -4 10 -10 10 -5 0 -11 -26 -13 -57 -2 -32 -3 106
-3 307 0 283 1 320 6 165 3 -110 9 -208 14 -217z m4353 -191 c-1 -111 -2 -20
-2 203 0 223 1 314 2 202 2 -111 2 -293 0 -405z m-739 561 c22 -22 12 -29 -19
-12 -21 10 -49 15 -84 12 -29 -1 -51 0 -48 5 7 12 138 8 151 -5z m-190 -21
c-9 -8 -26 -24 -38 -38 l-20 -24 17 38 c11 25 23 37 37 37 19 -1 20 -2 4 -13z
m242 -37 c6 -11 8 -20 6 -20 -3 0 -10 9 -16 20 -6 11 -8 20 -6 20 3 0 10 -9
16 -20z m-1266 -45 c3 -8 1 -15 -4 -15 -6 0 -10 7 -10 15 0 8 2 15 4 15 2 0 6
-7 10 -15z m953 -37 c-3 -7 -5 -2 -5 12 0 14 2 19 5 13 2 -7 2 -19 0 -25z
m340 10 c-3 -8 -6 -5 -6 6 -1 11 2 17 5 13 3 -3 4 -12 1 -19z m10 -40 c-3 -8
-6 -5 -6 6 -1 11 2 17 5 13 3 -3 4 -12 1 -19z m-345 -33 c3 -14 2 -25 -2 -25
-9 0 -20 25 -20 46 0 23 17 7 22 -21z m348 -16 c0 -4 -6 -9 -13 -12 -10 -4
-13 2 -9 20 3 18 7 21 13 11 5 -7 9 -16 9 -19z m-3406 -20 c1 -24 0 -25 -51
-21 -28 2 -65 0 -80 -5 -21 -8 -31 -7 -41 3 -11 12 -7 14 23 14 22 0 38 6 41
15 4 8 12 15 20 15 8 0 14 -7 14 -15 0 -9 9 -15 25 -15 19 0 25 5 25 21 0 29
23 18 24 -12z m3135 -66 c2 -2 -2 -3 -10 -3 -8 0 -23 13 -33 28 l-19 27 29
-25 c16 -14 31 -26 33 -27z m214 23 c-10 -14 -27 -27 -37 -30 -12 -3 -7 5 15
24 42 36 45 37 22 6z m-3313 4 c0 -5 -2 -10 -4 -10 -3 0 -8 5 -11 10 -3 6 -1
10 4 10 6 0 11 -4 11 -10z m-242 -37 c-14 -16 -30 -37 -36 -48 -10 -18 -11
-18 -12 -2 0 9 9 25 20 34 11 10 20 23 20 30 0 7 8 13 17 13 14 0 12 -5 -9
-27z m292 -5 c0 -12 -6 -9 -26 13 -19 22 -19 22 4 8 12 -8 22 -17 22 -21z
m3091 -6 c-7 -2 -18 1 -23 6 -8 8 -4 9 13 5 13 -4 18 -8 10 -11z m-3051 -67
c0 -14 -2 -25 -4 -25 -2 0 -6 11 -8 25 -3 14 -1 25 3 25 5 0 9 -11 9 -25z
m-383 -17 c-3 -8 -6 -5 -6 6 -1 11 2 17 5 13 3 -3 4 -12 1 -19z m386 -81 c-4
-39 -10 -57 -20 -57 -10 0 -11 5 -5 18 6 9 13 36 17 60 10 61 15 48 8 -21z
m-386 -9 c-3 -8 -6 -5 -6 6 -1 11 2 17 5 13 3 -3 4 -12 1 -19z m2713 -64 c0
-8 -4 -12 -10 -9 -5 3 -10 10 -10 16 0 5 5 9 10 9 6 0 10 -7 10 -16z m-2368
-19 c-3 -17 -11 -25 -25 -25 -20 0 -20 1 3 25 13 14 24 25 25 25 1 0 0 -11 -3
-25z m-75 -59 c-20 -20 -33 -24 -78 -23 -46 2 -79 14 -79 29 0 3 26 2 58 0 31
-2 68 1 82 7 39 16 43 13 17 -13z m1260 -842 c-3 -3 -12 -4 -19 -1 -8 3 -5 6
6 6 11 1 17 -2 13 -5z"/>
</g>
</svg>
